<svg width="178" height="212" viewBox="0 0 178 212" fill="none" xmlns="http://www.w3.org/2000/svg">
<path d="M7.23707 6.58826C9.40306 14.3637 12.4313 22.5495 16.5272 28.2735C16.5272 28.2735 17.5537 30.325 17.5537 31.3508C17.5537 32.3766 19.6068 44.6861 20.6334 47.7635C20.6334 47.7635 21.6599 68.546 20.6334 71.49C19.6068 74.434 15.5007 89.8208 16.5272 108.285C16.5272 108.285 10.368 143.162 10.368 149.317C10.368 149.481 10.3885 149.655 10.4809 149.84C5.27639 166.335 1.70405 191.21 0 212.003H86.3008L87.5942 210.31L88.3744 209.202L89.1238 209.264L91.3411 212.003H178.001C176.369 193.149 172.725 175.444 170.107 163.38L167.284 150.107L167.069 150.035C167.161 149.768 167.14 149.522 167.14 149.317C167.14 143.162 160.981 108.285 160.981 108.285C162.008 89.8208 157.902 74.434 156.875 71.49C155.849 68.546 156.875 47.7635 156.875 47.7635C157.902 44.6861 159.955 32.3766 159.955 31.3508C159.955 30.325 160.981 28.2735 160.981 28.2735C165.385 22.1187 168.557 13.1225 170.744 4.85467C171.257 3.34676 171.729 1.72601 172.17 0.00268555H5.39957C6.09762 3.73656 6.7854 6.89599 7.22681 6.58826H7.23707Z" fill="#2FB7A0"/>
</svg>
