<svg width="583" height="941" viewBox="0 0 583 941" fill="none" xmlns="http://www.w3.org/2000/svg">
<path d="M567.12 452.765C565.214 451.074 558.89 445.276 557.681 443.944C556.471 442.612 549.82 433.567 550.148 431.251C550.475 428.936 550.598 427.461 551.08 426.928C551.562 426.396 553.222 425.238 555.211 425.525C557.199 425.812 564.65 429.284 565.306 428.25C566.516 429.028 575.771 427.031 580.875 421.222C585.969 415.424 580.834 413.959 576.396 415.639C571.958 417.319 567.838 416.51 565.87 416.223C563.912 415.946 560.018 415.004 557.168 413.047C554.319 411.101 553.376 409.205 545.802 408.12C538.217 407.034 528.06 403.704 525.18 403.284C524.002 403.11 522.72 402.086 521.634 400.938L521.859 400.764L507.377 380.501C505.02 377.304 502.601 373.565 500.028 370.451L492.126 360.801C489.318 355.299 485.864 348.815 482.738 343.006C479.52 337.085 476.271 331.174 472.776 325.396C471.003 322.538 469.24 319.485 466.872 317.088C460.128 309.927 453.158 301.393 447.111 294.325C443.309 285.432 438.256 272.279 434.659 263.161C434.7 263.468 422.257 230.789 422.554 232.121C423.477 225.738 422.933 219.315 422.318 212.943C421.652 206.581 420.668 200.271 419.469 193.991C417.809 189.35 415.82 184.822 413.34 180.561C400.856 159.365 382.654 153.771 359.439 151.743C356.241 151.282 353.074 150.606 350.04 149.54C343.86 147.451 338.633 143.394 332.699 140.689C328.455 138.763 323.894 136.182 322.142 131.705C321.834 130.219 321.527 128.56 321.353 126.982C319.99 117.342 321.322 107.692 321.588 98.0213C322.234 97.2735 322.624 96.8125 322.624 96.8125C324.673 92.7147 324.673 83.4947 324.673 83.4947C325.698 85.5436 328.773 86.5681 330.823 85.5436C332.873 84.5192 335.948 77.3481 335.948 76.3237C335.948 75.2992 337.998 68.1281 337.998 64.0304C337.998 59.9326 333.898 57.8837 333.898 57.8837C330.823 57.8837 329.798 60.957 329.798 60.957C332.873 40.4682 326.211 23.565 326.211 23.565C314.445 0.0540447 293.321 -0.0279107 291.496 0.00282251C289.672 -0.0381551 268.548 0.0540447 256.792 23.565C256.792 23.565 250.13 40.4682 253.205 60.957C253.205 60.957 252.18 57.8837 249.105 57.8837C249.105 57.8837 245.006 59.9326 245.006 64.0304C245.006 68.1281 247.056 75.2992 247.056 76.3237C247.056 77.3481 250.13 84.5192 252.18 85.5436C254.23 86.5681 257.305 85.5436 258.33 83.4947C258.33 83.4947 258.33 92.7147 260.38 96.8125C260.38 96.8125 260.759 97.2735 261.415 98.0213C261.681 107.692 263.014 117.342 261.651 126.982C261.466 128.57 261.169 130.219 260.861 131.705C259.109 136.182 254.558 138.753 250.305 140.689C244.37 143.394 239.153 147.451 232.963 149.54C229.929 150.606 226.762 151.282 223.564 151.743C200.36 153.761 182.137 159.375 169.663 180.561C167.183 184.822 165.195 189.35 163.534 193.991C162.335 200.271 161.361 206.581 160.685 212.943C160.07 219.315 159.527 225.728 160.449 232.11C160.675 230.902 148.396 263.284 148.345 263.151C144.757 272.248 139.664 285.473 135.892 294.314C129.845 301.383 122.875 309.917 116.131 317.077C113.753 319.475 112.001 322.527 110.228 325.386C106.722 331.164 103.484 337.075 100.265 342.996C97.129 348.804 93.6852 355.258 90.8769 360.79L82.9747 370.441C77.5939 377.376 66.5759 393.327 61.1335 400.764C61.1335 400.764 61.236 400.836 61.359 400.938C60.2623 402.086 58.9914 403.11 57.8127 403.284C54.9327 403.694 44.7756 407.034 37.1912 408.12C29.6067 409.205 28.674 411.101 25.8247 413.047C22.9754 414.994 19.0807 415.936 17.1231 416.223C15.1655 416.499 11.035 417.309 6.59705 415.639C2.15911 413.959 -2.97578 415.424 2.11812 421.222C7.21201 427.02 16.4671 429.018 17.6868 428.25C18.3427 429.284 25.794 425.812 27.7823 425.525C29.7707 425.238 31.4311 426.396 31.9128 426.928C32.3945 427.461 32.5175 428.936 32.8455 431.251C33.1735 433.567 26.5217 442.612 25.3123 443.944C24.1028 445.276 17.779 451.074 15.8727 452.765C13.9663 454.455 9.28237 460.427 8.34968 461.677C7.417 462.917 -2.54531 472.608 1.54416 476.388C5.63362 480.168 13.6793 469.371 14.3865 468.428C15.0937 467.486 19.8391 463.409 22.135 461.247C24.4308 459.085 29.6067 454.998 29.8834 454.619C30.1704 454.24 31.3183 454.219 31.9128 454.66C32.5073 455.1 33.3579 455.992 33.8294 456.719C34.2906 457.446 28.7355 465.714 27.4954 467.701C26.2654 469.688 21.9095 476.665 20.6693 478.775C19.4292 480.886 12.7876 489.347 17.5125 492.892C22.2375 496.437 27.3621 484.256 27.7516 483.744C28.1308 483.232 33.9319 474.083 34.6494 473.141C35.3566 472.198 41.9571 461.206 42.3261 460.929C42.695 460.663 43.2588 460.55 43.3203 461.001C43.3817 461.452 40.4095 468.428 40.0405 469.371C39.6715 470.313 35.8178 478.601 34.6596 480.599C33.5014 482.596 26.2654 491.806 30.9186 494.531C35.5718 497.256 41.3216 485.209 41.8136 484.276C42.3056 483.334 47.1535 475.589 47.8607 473.96C48.5679 472.342 53.7848 461.452 54.041 461.104C54.2767 460.786 55.7321 460.356 56.2138 460.427L56.3881 460.694C56.4803 461.923 55.8244 467.947 55.6809 468.613C55.5169 469.33 55.0659 475.067 54.5637 477.3C54.0615 479.544 51.1097 491.868 55.7014 492.103C60.2931 492.339 62.2609 480.322 62.4659 478.744C62.6709 477.177 64.0238 471.942 64.3415 469.996C64.6695 468.049 66.0224 461.851 66.6579 459.762C67.2933 457.672 69.6199 454.014 71.7108 449.64C73.8119 445.266 78.4036 435.144 78.547 431.067C78.6905 427 82.739 422.441 83.3642 421.273C83.395 421.212 83.4462 421.13 83.4975 421.048C83.9484 420.474 84.7684 419.45 85.8855 418.067C87.0745 416.684 88.2121 415.424 88.2121 415.424L88.0994 415.342C97.1905 404.237 116.449 381.587 127.159 375.471C141.508 367.275 171.231 325.273 171.231 325.273C173.281 323.224 183.018 301.199 183.018 301.199C184.473 299.744 195.686 282.011 205.935 260.498C206.561 259.186 209.051 278.753 210.117 277.995C212.28 285.76 215.303 293.935 219.393 299.652C219.393 299.652 220.418 301.701 220.418 302.725C220.418 303.75 222.468 316.043 223.492 319.116C223.492 319.116 224.517 339.871 223.492 342.811C222.468 345.752 218.368 361.118 219.393 379.558C219.393 379.558 213.243 414.389 213.243 420.536C213.243 420.7 213.264 420.874 213.356 421.058C204.818 448.103 200.688 497.748 201.969 514.784C202.43 520.869 202.932 527.139 203.701 533.327C203.701 533.327 207.75 580.646 211.962 597.795C216.185 614.944 222.334 625.188 222.334 625.188L225.409 642.604L228.484 660.019L229.458 680.457C229.488 681.174 229.488 681.891 229.458 682.618L228.484 702.032L226.434 735.838L238.733 796.28L243.858 823.003L245.996 847.512L247.958 872.089L243.858 883.358C230.534 912.042 214.135 914.091 209.154 925.595C209.154 925.595 206.079 930.718 209.154 933.791C209.154 933.791 210.179 935.84 212.229 935.84C212.229 935.84 214.278 938.913 216.328 937.889C216.328 937.889 220.428 941.986 223.503 938.913L223.482 938.134C224.128 939.231 224.825 939.876 224.825 939.876C237.421 943.912 244.001 935.84 244.001 935.84C249.126 934.815 253.226 930.717 256.3 929.693C259.375 928.669 263.475 912.278 263.475 912.278C279.874 912.278 281.924 907.155 287.048 903.058C292.173 898.96 289.098 884.618 288.073 882.569C287.048 880.52 281.924 871.3 281.924 871.3V864.129C281.924 862.08 277.824 848.762 276.799 841.591C275.774 834.42 282.949 769.88 282.949 769.88C282.949 769.88 288.073 744.269 287.048 734.025C286.023 723.78 277.824 679.729 277.824 679.729C283.974 666.412 282.949 642.85 282.949 642.85C286.023 628.507 283.974 608.019 283.974 608.019L287.048 564.992C292.132 535.929 290.523 507.388 289.16 493.251L288.688 492.697L288.124 484.389L290.369 481.469L291.148 480.363L291.896 480.425L294.192 483.262L294.889 484.635L293.895 492.236C292.521 506.384 290.912 534.925 296.006 563.978L299.081 607.004C299.081 607.004 297.031 627.493 300.106 641.835C300.106 641.835 299.081 665.398 305.231 678.715C305.231 678.715 297.031 722.766 296.006 733.011C294.981 743.255 300.106 768.866 300.106 768.866C300.106 768.866 307.28 833.406 306.255 840.577C305.231 847.748 301.131 861.066 301.131 863.115V870.286C301.131 870.286 296.006 879.506 294.981 881.555C293.956 883.604 290.882 897.946 296.006 902.043C301.131 906.141 303.181 911.263 319.58 911.263C319.58 911.263 323.679 927.654 326.754 928.679C329.829 929.703 333.929 933.801 339.053 934.826C339.053 934.826 345.633 942.908 358.23 938.862C358.23 938.862 358.927 938.216 359.572 937.12L359.552 937.899C362.627 940.972 366.726 936.874 366.726 936.874C368.776 937.899 370.826 934.826 370.826 934.826C372.876 934.826 373.901 932.777 373.901 932.777C376.976 929.703 373.901 924.581 373.901 924.581C372.046 919.633 364.461 913.701 358.67 908.979L347.396 897.71L339.197 882.343L335.097 871.075L337.147 847.512V836.244L339.197 821.901L356.62 736.873L353.546 691.797V674.382L356.62 644.673L360.72 625.209L367.895 608.818C374.239 584.241 378.872 543.172 381.075 513.78C383.238 484.963 376.781 453.103 372.763 434.601L369.945 421.345L369.729 421.273C369.822 421.007 369.801 420.761 369.801 420.556C369.801 414.41 363.651 379.579 363.651 379.579C364.676 361.139 360.577 345.772 359.552 342.832C358.527 339.892 359.552 319.137 359.552 319.137C360.577 316.063 362.627 303.77 362.627 302.746C362.627 301.721 363.651 299.672 363.651 299.672C368.048 293.526 371.205 284.541 373.399 276.284C375.028 271.5 376.299 265.61 377.119 258.459C385.318 276.899 397.033 298.197 400.036 301.209C400.036 301.209 409.773 323.234 411.823 325.283C411.823 325.283 441.546 367.285 455.895 375.481C466.606 381.597 485.864 404.247 494.955 415.352L494.842 415.434C494.842 415.434 495.99 416.704 497.169 418.077C498.286 419.47 499.106 420.495 499.557 421.058C499.608 421.14 499.66 421.212 499.69 421.284C500.315 422.462 504.364 427.01 504.507 431.077C504.651 435.144 509.243 445.276 511.344 449.65C513.445 454.025 515.761 457.682 516.397 459.772C517.032 461.862 518.395 468.06 518.713 470.006C519.041 471.952 520.384 477.187 520.589 478.755C520.794 480.322 522.761 492.339 527.353 492.113C531.945 491.878 528.983 479.554 528.491 477.31C527.989 475.067 527.538 469.34 527.374 468.623C527.23 467.967 526.574 461.933 526.666 460.704L526.841 460.438C527.312 460.366 528.778 460.796 529.013 461.114C529.28 461.462 534.487 472.352 535.194 473.971C535.901 475.589 540.749 483.344 541.241 484.287C541.733 485.229 547.483 497.277 552.136 494.541C556.799 491.816 549.553 482.607 548.395 480.609C547.237 478.611 543.383 470.324 543.014 469.381C542.645 468.439 539.662 461.452 539.734 461.011C539.796 460.561 540.359 460.663 540.728 460.94C541.097 461.206 547.698 472.198 548.405 473.151C549.112 474.093 554.913 483.242 555.303 483.754C555.692 484.266 560.807 496.447 565.542 492.902C570.267 489.358 563.625 480.896 562.385 478.785C561.145 476.675 556.799 469.699 555.559 467.711C554.329 465.724 548.764 457.457 549.225 456.729C549.686 456.002 550.547 455.111 551.142 454.67C551.736 454.23 552.894 454.25 553.171 454.629C553.458 455.008 558.634 459.096 560.919 461.257C563.215 463.419 567.961 467.496 568.668 468.439C569.375 469.381 577.421 480.179 581.51 476.398C585.6 472.618 575.627 462.927 574.705 461.688C573.772 460.448 569.088 454.475 567.182 452.775L567.12 452.765ZM83.6102 420.853C83.8049 420.577 84.0612 420.239 84.3584 419.86L83.6102 420.853ZM498.635 419.86C498.942 420.239 499.198 420.577 499.383 420.853L498.635 419.86Z" fill="#2FB7A0"/>
</svg>
