<svg width="136" height="152" viewBox="0 0 136 152" fill="none" xmlns="http://www.w3.org/2000/svg">
<path d="M135.88 151.743C132.68 151.283 129.52 150.603 126.48 149.543C120.3 147.453 115.07 143.393 109.14 140.693C104.9 138.763 100.34 136.183 98.58 131.713C98.27 130.223 97.97 128.563 97.79 126.993C96.43 117.353 97.76 107.703 98.03 98.0327C98.68 97.2827 99.07 96.8227 99.07 96.8227C101.12 92.7227 101.12 83.5027 101.12 83.5027C102.14 85.5527 105.22 86.5727 107.27 85.5527C109.32 84.5327 112.39 77.3527 112.39 76.3327C112.39 75.3127 114.44 68.1327 114.44 64.0427C114.44 59.9527 110.34 57.8927 110.34 57.8927C107.26 57.8927 106.24 60.9627 106.24 60.9627C109.31 40.4727 102.65 23.5727 102.65 23.5727C90.88 0.0527267 69.76 -0.0272719 67.93 0.00272811C66.11 -0.0372719 44.98 0.0527267 33.23 23.5627C33.23 23.5627 26.57 40.4627 29.64 60.9527C29.64 60.9527 28.61 57.8827 25.54 57.8827C25.54 57.8827 21.44 59.9327 21.44 64.0327C21.44 68.1327 23.49 75.3027 23.49 76.3227C23.49 77.3427 26.56 84.5227 28.61 85.5427C30.66 86.5627 33.73 85.5427 34.76 83.4927C34.76 83.4927 34.76 92.7127 36.81 96.8127C36.81 96.8127 37.19 97.2727 37.85 98.0227C38.12 107.693 39.45 117.343 38.09 126.983C37.91 128.573 37.61 130.223 37.3 131.703C35.55 136.183 31 138.753 26.74 140.683C20.81 143.393 15.59 147.443 9.4 149.533C6.37 150.603 3.2 151.273 0 151.733H135.88V151.743Z" fill="#2FB7A0"/>
</svg>
