<svg width="150" height="56" viewBox="0 0 150 56" fill="none" xmlns="http://www.w3.org/2000/svg">
<path d="M150.008 55.6727H0.368408C2.57841 55.3927 4.82841 55.1527 7.13841 54.9427C7.22841 54.9427 7.32841 54.9227 7.41841 54.9127C10.5684 54.4527 13.6784 53.7727 16.6784 52.7327C22.8684 50.6427 28.0784 46.5827 34.0184 43.8827C36.9184 42.5627 39.9484 40.9427 42.1484 38.6327C42.4084 38.3627 42.6484 38.0727 42.8884 37.7827C43.4784 37.0427 43.9884 36.2327 44.3784 35.3427C44.5084 35.0427 44.5984 34.7327 44.6584 34.4227C44.9284 33.0727 45.1884 31.5927 45.3484 30.1727C46.6384 21.0727 45.5184 11.9627 45.1684 2.83269C45.1284 1.80269 44.7584 0.822686 44.0984 0.0326855C44.0784 0.0126855 44.0784 0.00268555 44.0784 0.00268555H106.328C105.658 0.792686 105.278 1.79269 105.238 2.83269C104.888 11.9627 103.768 21.0727 105.058 30.1727C105.208 31.5827 105.478 33.0527 105.748 34.4127C105.818 34.7327 105.908 35.0527 106.038 35.3527C107.908 39.5527 112.298 42.0227 116.398 43.8827C122.338 46.5827 127.558 50.6427 133.738 52.7327C136.738 53.7727 139.848 54.4527 142.998 54.9127C143.088 54.9227 143.178 54.9327 143.278 54.9427C145.568 55.1527 147.818 55.3827 149.998 55.6727H150.008Z" fill="#2FB7A0"/>
</svg>
