<svg width="84" height="76" viewBox="0 0 84 76" fill="none" xmlns="http://www.w3.org/2000/svg">
<path d="M8.10597 4.73969C8.10597 5.54328 7.90389 6.32678 7.50983 7.02993C6.11547 9.52106 2.71039 15.6585 1.89196 17.2858C0.861346 19.345 -2.24061 33.7493 2.93268 37.8678C7.72202 41.6848 9.85398 46.3758 23.2924 47.0488C25.3334 47.1492 27.0915 48.5153 27.6574 50.4741C29.0517 55.3459 31.7899 63.8941 34.0027 64.6374C36.8925 65.5917 40.6916 69.238 45.39 70.5538C46.0771 70.7447 46.6935 71.1264 47.2189 71.6086C49.2094 73.4468 54.9485 77.6355 64.1937 75.3252C65.3961 75.0238 66.4469 74.2805 67.0936 73.2358C67.1138 73.1956 67.1441 73.1555 67.1643 73.1153L67.1441 73.8988C69.2761 76.0183 71.9031 74.7325 73.3379 73.728C73.9341 73.3061 74.6413 73.1153 75.3789 73.0751C76.2883 73.0249 77.1371 72.382 77.7231 71.7894C78.2182 71.2972 78.7941 70.8853 79.461 70.6643C80.916 70.2023 81.6435 68.7458 81.6435 68.7458C84.7555 65.662 81.6435 60.519 81.6435 60.519C79.7944 55.597 72.2669 49.7207 66.4368 44.9996C66.3055 44.8992 66.1943 44.7887 66.0731 44.6782L55.3628 34.0306C55.0293 33.6991 54.7464 33.3275 54.5241 32.9056L46.7339 18.3807C46.6328 18.1798 46.5318 17.9789 46.4611 17.7679L43.3187 9.16949C42.7731 7.66275 41.4899 6.53773 39.9237 6.17611L13.9562 0.129084C10.9654 -0.564014 8.10597 1.68604 8.10597 4.73969Z" fill="#2FB7A0"/>
</svg>
