<svg width="82" height="92" viewBox="0 0 82 92" fill="none" xmlns="http://www.w3.org/2000/svg">
<path d="M0.752745 18.3661C-0.0774419 19.0732 -0.241434 20.2929 0.36327 21.2051C1.65467 23.1524 3.08957 25.7147 3.17156 28.1028C3.31505 32.1718 7.9067 42.3082 10.0078 46.6846C12.1089 51.0611 14.4252 54.72 15.0607 56.8109C15.6961 58.9017 17.0593 65.1025 17.377 67.0498C17.705 68.9972 19.0476 74.2346 19.2526 75.8027C19.4576 77.3708 21.4254 89.3932 26.0171 89.1677C30.6087 88.9319 27.6467 76.6021 27.1547 74.3575C26.6525 72.113 26.2016 66.3837 26.0376 65.6662C25.8941 65.0103 25.2381 58.9735 25.3304 57.7436L25.5046 57.4771C25.9761 57.4053 27.4417 57.8358 27.6774 58.1535C27.9439 58.502 33.1505 69.3969 33.8577 71.0163C34.5649 72.6357 39.4128 80.3943 39.9048 81.3373C40.3967 82.2802 46.1465 94.3333 50.7997 91.5967C55.4631 88.8704 48.2169 79.6564 47.0587 77.6578C45.9006 75.6592 42.0468 67.3676 41.6779 66.4246C41.3089 65.4817 38.3264 58.4917 38.3981 58.051C38.4596 57.6001 39.0233 57.7026 39.3923 57.9793C39.7613 58.2458 46.3618 69.2432 47.069 70.1964C47.7762 71.1393 53.5772 80.2918 53.9667 80.8043C54.3562 81.3168 59.4705 93.5031 64.2057 89.9569C68.9306 86.4106 62.2891 77.9448 61.0489 75.8334C59.8088 73.7221 55.4631 66.7424 54.2229 64.754C52.993 62.7657 47.4277 54.4946 47.8889 53.7669C48.3501 53.0392 49.2111 52.1475 49.8055 51.7068C50.4 51.266 51.5581 51.2865 51.8349 51.6658C52.1218 52.045 57.2977 56.1344 59.5833 58.297C61.8791 60.4596 66.6245 64.5388 67.3317 65.4817C68.0389 66.4246 76.0845 77.2273 80.174 73.4454C84.2634 69.6634 74.2909 59.9676 73.3685 58.7275C72.4358 57.4873 67.7519 51.512 65.8455 49.8107C63.9392 48.1195 57.6154 42.3185 56.406 40.9861C55.1966 39.6537 48.5449 30.6036 48.8728 28.2873C49.2008 25.971 49.3238 24.4951 49.8055 23.9621C50.2872 23.4292 51.9476 22.271 53.936 22.558C55.9243 22.845 63.3755 26.3194 64.0314 25.2843C65.2408 26.0632 74.4959 24.0646 79.6 18.2533C84.7041 12.442 79.559 10.9866 75.1211 12.6675C70.6832 14.3484 66.563 13.5387 64.5951 13.2517C62.6375 12.975 58.7428 12.032 55.8936 10.0744C53.0443 8.12708 52.1013 6.23098 44.5272 5.14456C38.1316 4.23238 27.2982 1.20886 23.8135 0.101942C23.1063 -0.123541 22.3274 0.0301975 21.7636 0.511911L0.783491 18.3661H0.752745Z" fill="#2FB7A0"/>
</svg>
