<svg width="89" height="243" viewBox="0 0 89 243" fill="none" xmlns="http://www.w3.org/2000/svg">
<path d="M1.66648 47.2676L2.35648 48.6376L1.36648 56.2376C-0.00351751 70.3876 -1.60352 98.9276 3.48648 127.988L6.55648 171.008C6.55648 171.008 4.50648 191.498 7.58648 205.838C7.58648 205.838 6.86648 222.298 10.2165 235.468C11.2865 239.668 15.2165 242.488 19.5365 242.108L53.8165 239.038C58.0065 238.658 61.3465 235.368 61.7765 231.188L64.1065 208.678L68.2065 189.218L75.3865 172.828C81.7265 148.248 86.3665 107.178 88.5665 77.7876C90.5965 50.6776 85.0065 20.8876 80.9965 2.04757C80.6365 0.337575 78.7165 -0.522425 77.1965 0.337575L2.54648 42.6276C0.886483 43.5676 0.466482 45.7776 1.66648 47.2676Z" fill="#2FB7A0"/>
</svg>
