<svg width="93" height="477" viewBox="0 0 93 477" fill="none" xmlns="http://www.w3.org/2000/svg">
<path d="M0.0266113 0.00292969H88.6783C91.4461 21.0992 92.5449 42.0524 91.7986 51.962C91.3321 58.0304 90.8241 64.2826 90.0467 70.4532C90.0467 70.4532 85.952 117.641 81.6915 134.743C77.4206 151.845 71.2009 162.061 71.2009 162.061L64.9812 196.796L63.9964 217.177C63.9653 217.892 63.9653 218.607 63.9964 219.332L64.9812 238.692L67.0545 272.405L54.615 332.68L48.3953 365.372L47.4831 375.056L46.8611 389.798L45.2854 408.279L49.4319 419.517C62.908 448.122 79.4939 450.165 84.5319 461.638C84.5319 461.638 87.6417 466.746 84.5319 469.811C84.5319 469.811 83.4952 471.854 81.422 471.854C81.422 471.854 79.3488 474.919 77.2755 473.897C77.2755 473.897 73.129 477.984 70.0192 474.919L70.0399 474.142C69.3868 475.236 68.6819 475.879 68.6819 475.879C55.9419 479.904 49.2868 471.854 49.2868 471.854C44.1037 470.832 39.9572 466.746 36.8473 465.724C33.7375 464.703 29.591 448.357 29.591 448.357C13.0051 448.357 10.9319 443.249 5.74875 439.162C0.565654 435.076 3.67551 420.773 4.71213 418.73C5.74875 416.687 10.9319 407.493 10.9319 407.493V400.341C10.9319 398.298 15.0783 385.017 16.115 377.866C17.1516 370.715 9.89523 306.353 9.89523 306.353C9.89523 306.353 4.71213 280.813 5.74875 270.597C6.78537 260.381 15.0783 216.451 15.0783 216.451C8.85861 203.171 9.89523 179.674 9.89523 179.674C6.78537 165.371 8.85861 144.939 8.85861 144.939L5.74875 102.031C0.617485 73.0378 2.24498 44.5758 3.62368 30.4673L4.10053 29.9157L4.67067 21.6304L2.40047 18.7188L1.61264 17.6155L0.855907 17.6768L0.0266113 18.6882L0.0266113 0.00292969Z" fill="#2FB7A0"/>
</svg>
