<svg width="114" height="137" viewBox="0 0 114 137" fill="none" xmlns="http://www.w3.org/2000/svg">
<path d="M113.41 108.97C112.24 108.8 110.96 107.77 109.87 106.63C109.99 106.52 110.09 106.45 110.09 106.45C104.65 99.01 93.63 83.06 88.25 76.13L80.35 66.48C77.54 60.95 74.1 54.49 70.96 48.68C67.74 42.76 64.5 36.85 61 31.07C59.23 28.21 57.47 25.16 55.1 22.76C48.35 15.6 41.38 7.07 35.33 0L3.05176e-05 30.96C3.05176e-05 30.96 29.72 72.96 44.07 81.16C54.78 87.27 74.04 109.92 83.13 121.03L83.01 121.11C83.01 121.11 84.15 122.37 85.34 123.75C86.46 125.14 87.28 126.16 87.73 126.74C87.78 126.82 87.83 126.9 87.86 126.96C88.49 128.13 92.54 132.69 92.68 136.75L113.41 108.97Z" fill="#2D5893"/>
</svg>
