<svg width="83" height="76" viewBox="0 0 83 76" fill="none" xmlns="http://www.w3.org/2000/svg">
<path d="M8.07936 4.73676C8.07936 5.54035 7.87728 6.32385 7.48322 7.027C6.08886 9.51813 2.68378 15.6556 1.86535 17.2828C0.834735 19.342 -2.26722 33.7464 2.90607 37.8648C7.69541 41.6819 9.82737 46.3728 23.2658 47.0459C25.3068 47.1463 27.0649 48.5124 27.6308 50.4712C29.0251 55.3429 31.7633 63.8911 33.9761 64.6345C36.8659 65.5887 40.665 69.235 45.3634 70.5509C46.0505 70.7418 46.6668 71.1235 47.1923 71.6056C49.1828 73.4438 54.9219 77.6326 64.1671 75.3222C65.3695 75.0209 66.4203 74.2776 67.067 73.2329C67.0872 73.1927 67.1175 73.1525 67.1377 73.1124L67.1175 73.8959C69.2495 76.0153 71.8765 74.7296 73.3113 73.7251C73.9074 73.3032 74.6147 73.1124 75.3523 73.0722C76.2617 73.022 77.1104 72.3791 77.6965 71.7864C78.1916 71.2942 78.7675 70.8824 79.4344 70.6614C80.8894 70.1993 81.6169 68.7428 81.6169 68.7428C84.7289 65.659 81.6169 60.5161 81.6169 60.5161C79.7678 55.5941 72.2403 49.7178 66.4102 44.9967C66.2789 44.8962 66.1677 44.7858 66.0465 44.6753L55.3361 34.0277C55.0027 33.6962 54.7198 33.3245 54.4975 32.9026L46.7073 18.3777C46.6062 18.1768 46.5052 17.9759 46.4344 17.765L43.2921 9.16656C42.7465 7.65982 41.4632 6.5348 39.8971 6.17318L13.9296 0.126154C10.9388 -0.566944 8.07936 1.68311 8.07936 4.73676Z" fill="#2D5893"/>
</svg>
