<svg width="84" height="76" viewBox="0 0 84 76" fill="none" xmlns="http://www.w3.org/2000/svg">
<path d="M74.9473 4.73969C74.9473 5.54328 75.1493 6.32678 75.5434 7.02993C76.9378 9.52106 80.3428 15.6585 81.1613 17.2858C82.1919 19.345 85.2938 33.7493 80.1205 37.8678C75.3312 41.6848 73.1992 46.3758 59.7608 47.0488C57.7198 47.1492 55.9617 48.5153 55.3959 50.4741C54.0015 55.3459 51.2633 63.8941 49.0505 64.6374C46.1607 65.5917 42.3616 69.238 37.6632 70.5538C36.9761 70.7447 36.3598 71.1264 35.8344 71.6086C33.8439 73.4468 28.1047 77.6355 18.8595 75.3252C17.6571 75.0238 16.6063 74.2805 15.9596 73.2358C15.9394 73.1956 15.9091 73.1555 15.8889 73.1153L15.9091 73.8988C13.7771 76.0183 11.1501 74.7325 9.71531 73.728C9.11917 73.3061 8.41188 73.1153 7.67428 73.0751C6.76491 73.0249 5.91617 72.382 5.33013 71.7894C4.83503 71.2972 4.2591 70.8853 3.59223 70.6643C2.13724 70.2023 1.40975 68.7458 1.40975 68.7458C-1.70231 65.662 1.40975 60.519 1.40975 60.519C3.2588 55.597 10.7863 49.7207 16.6164 44.9996C16.7477 44.8992 16.8589 44.7887 16.9801 44.6782L27.6905 34.0306C28.0239 33.6991 28.3068 33.3275 28.5291 32.9056L36.3194 18.3807C36.4204 18.1798 36.5214 17.9789 36.5922 17.7679L39.7345 9.16949C40.2802 7.66275 41.5634 6.53773 43.1295 6.17611L69.097 0.129084C72.0878 -0.564014 74.9473 1.68604 74.9473 4.73969Z" fill="#2D5893"/>
</svg>
