<svg width="114" height="137" viewBox="0 0 114 137" fill="none" xmlns="http://www.w3.org/2000/svg">
<path d="M0.0266724 108.973C1.19667 108.803 2.47667 107.773 3.56667 106.633C3.44667 106.523 3.34667 106.453 3.34667 106.453C8.78667 99.0129 19.8067 83.0629 25.1867 76.1329L33.0867 66.4829C35.8967 60.9529 39.3367 54.4929 42.4767 48.6829C45.6967 42.7629 48.9367 36.8529 52.4367 31.0729C54.2067 28.2129 55.9667 25.1629 58.3367 22.7629C65.0867 15.6029 72.0567 7.07293 78.1067 0.00292969L113.437 30.9629C113.437 30.9629 83.7167 72.9629 69.3667 81.1629C58.6567 87.2729 39.3967 109.923 30.3067 121.033L30.4267 121.113C30.4267 121.113 29.2867 122.373 28.0967 123.753C26.9767 125.143 26.1567 126.163 25.7067 126.743C25.6567 126.823 25.6067 126.903 25.5767 126.963C24.9467 128.133 20.8967 132.693 20.7567 136.753L0.0266724 108.973Z" fill="#2D5893"/>
</svg>
