<svg width="82" height="92" viewBox="0 0 82 92" fill="none" xmlns="http://www.w3.org/2000/svg">
<path d="M80.9966 18.369C81.8268 19.0762 81.9908 20.2958 81.3861 21.208C80.0947 23.1554 78.6598 25.7177 78.5778 28.1057C78.4343 32.1747 73.8426 42.3112 71.7415 46.6876C69.6404 51.064 67.3241 54.723 66.6887 56.8138C66.0532 58.9046 64.6901 65.1054 64.3723 67.0528C64.0444 69.0001 62.7017 74.2375 62.4967 75.8056C62.2918 77.3737 60.3239 89.3961 55.7323 89.1706C51.1406 88.9349 54.1026 76.6051 54.5946 74.3605C55.0968 72.1159 55.5478 66.3866 55.7118 65.6691C55.8552 65.0132 56.5112 58.9764 56.419 57.7465L56.2447 57.48C55.7733 57.4083 54.3076 57.8387 54.0719 58.1565C53.8054 58.5049 48.5988 69.3999 47.8916 71.0192C47.1844 72.6386 42.3365 80.3973 41.8446 81.3402C41.3526 82.2831 35.6028 94.3362 30.9496 91.5997C26.2862 88.8734 33.5324 79.6593 34.6906 77.6607C35.8488 75.6621 39.7025 67.3705 40.0715 66.4276C40.4404 65.4846 43.4229 58.4947 43.3512 58.054C43.2897 57.603 42.726 57.7055 42.357 57.9822C41.9881 58.2487 35.3875 69.2461 34.6804 70.1993C33.9732 71.1422 28.1721 80.2948 27.7826 80.8072C27.3932 81.3197 22.2788 93.506 17.5437 89.9598C12.8188 86.4136 19.4603 77.9477 20.7004 75.8364C21.9406 73.725 26.2862 66.7453 27.5264 64.757C28.7563 62.7686 34.3216 54.4975 33.8604 53.7698C33.3992 53.0421 32.5383 52.1504 31.9438 51.7097C31.3494 51.269 30.1912 51.2895 29.9145 51.6687C29.6275 52.0479 24.4516 56.1374 22.1661 58.2999C19.8702 60.4625 15.1248 64.5417 14.4176 65.4846C13.7105 66.4276 5.66481 77.2303 1.57538 73.4483C-2.51406 69.6663 7.45843 59.9706 8.38086 58.7304C9.31354 57.4903 13.9974 51.515 15.9038 49.8136C17.8101 48.1225 24.1339 42.3214 25.3433 40.989C26.5527 39.6566 33.2045 30.6066 32.8765 28.2902C32.5485 25.9739 32.4255 24.498 31.9438 23.9651C31.4621 23.4321 29.8017 22.2739 27.8134 22.5609C25.825 22.8479 18.3739 26.3224 17.7179 25.2872C16.5085 26.0661 7.25344 24.0675 2.14933 18.2562C-2.95478 12.4449 2.19032 10.9895 6.62823 12.6704C11.0661 14.3513 15.1863 13.5416 17.1542 13.2546C19.1118 12.9779 23.0065 12.035 25.8558 10.0774C28.7051 8.13001 29.648 6.23391 37.2222 5.14749C43.6177 4.23531 54.4511 1.21179 57.9358 0.104872C58.643 -0.120611 59.422 0.0331272 59.9857 0.514841L80.9658 18.369H80.9966Z" fill="#2D5893"/>
</svg>
