<svg width="231" height="344" viewBox="0 0 231 344" fill="none" xmlns="http://www.w3.org/2000/svg">
<path d="M205.897 106.803C199.337 125.883 185.987 146.543 182.977 149.553C182.977 149.553 173.237 171.573 171.187 173.623C171.187 173.623 141.467 215.623 127.117 223.823C116.407 229.943 97.1466 252.593 88.0566 263.693L88.1666 263.773C88.1666 263.773 87.0166 265.043 85.8366 266.413C84.7166 267.803 83.8966 268.833 83.4466 269.393C83.3966 269.473 83.3466 269.543 83.3166 269.623C82.6966 270.803 78.6466 275.353 78.4966 279.413C78.3566 283.483 73.7566 293.613 71.6566 297.983C69.5566 302.363 67.2366 306.013 66.6066 308.103C65.9666 310.193 64.6066 316.393 64.2866 318.333C63.9566 320.283 62.6166 325.513 62.4066 327.083C62.1966 328.653 60.2366 340.663 55.6466 340.443C51.0566 340.203 54.0166 327.883 54.5066 325.643C55.0066 323.403 55.4566 317.673 55.6266 316.953C55.7666 316.293 56.4266 310.263 56.3366 309.033L56.1666 308.763C55.6966 308.693 54.2266 309.123 53.9966 309.443C53.7266 309.793 48.5266 320.683 47.8166 322.303C47.1066 323.923 42.2566 331.673 41.7666 332.623C41.2766 333.563 35.5266 345.613 30.8766 342.873C26.2166 340.153 33.4566 330.943 34.6166 328.943C35.7766 326.943 39.6266 318.653 39.9966 317.713C40.3666 316.773 43.3466 309.783 43.2766 309.343C43.2166 308.893 42.6566 308.993 42.2866 309.273C41.9166 309.543 35.3166 320.533 34.6066 321.483C33.8966 322.423 28.0966 331.573 27.7066 332.083C27.3166 332.593 22.2066 344.773 17.4666 341.233C12.7366 337.693 19.3866 329.223 20.6266 327.113C21.8666 325.003 26.2166 318.023 27.4566 316.043C28.6866 314.053 34.2566 305.793 33.7866 305.063C33.3266 304.333 32.4666 303.443 31.8666 303.003C31.2766 302.563 30.1166 302.583 29.8366 302.963C29.5466 303.343 24.3766 307.433 22.0866 309.593C19.7866 311.753 15.0466 315.833 14.3366 316.773C13.6266 317.713 5.58658 328.513 1.49658 324.733C-2.59342 320.953 7.37659 311.263 8.29659 310.023C9.22659 308.783 13.9166 302.813 15.8166 301.113H15.8766C17.7866 299.413 24.1066 293.613 25.3166 292.283C26.5266 290.953 33.1766 281.903 32.8466 279.593C32.5166 277.273 32.3966 275.803 31.9166 275.273C31.4366 274.743 29.7766 273.583 27.7866 273.873C25.7966 274.163 18.3466 277.633 17.6866 276.603C16.4766 277.383 7.22658 275.383 2.11658 269.573C-2.97342 263.773 2.15659 262.313 6.59659 263.993C11.0366 265.673 15.1566 264.863 17.1266 264.573C19.0866 264.293 22.9766 263.353 25.8266 261.393C28.6766 259.443 29.6166 257.553 37.1966 256.463C44.7866 255.373 54.9366 252.043 57.8166 251.623C58.9966 251.453 60.2766 250.423 61.3666 249.273L61.1366 249.103L75.6166 228.843C77.9766 225.643 80.3966 221.903 82.9666 218.793L90.8666 209.143C93.6766 203.643 97.1266 197.153 100.257 191.353C103.477 185.433 106.727 179.523 110.217 173.743C111.987 170.883 113.757 167.833 116.117 165.433C122.857 158.273 129.827 149.733 135.877 142.673C139.677 133.783 144.727 120.623 148.327 111.513C148.287 111.823 160.727 79.143 160.437 80.473C159.517 74.093 160.057 67.663 160.677 61.293C161.347 54.933 162.327 48.623 163.527 42.343C165.187 37.703 167.177 33.173 169.657 28.913C182.167 7.71295 200.367 2.11295 223.577 0.0829545C223.607 0.0829545 223.637 0.0829545 223.677 0.0729545C228.077 -0.567046 231.777 3.33295 230.807 7.68295C225.757 30.313 213.077 85.903 205.897 106.803ZM84.3766 268.203C84.0666 268.583 83.8166 268.923 83.6266 269.193L84.3766 268.203Z" fill="#2D5893"/>
</svg>
