<svg width="83" height="76" viewBox="0 0 83 76" fill="none" xmlns="http://www.w3.org/2000/svg">
<path d="M74.9206 4.73676C74.9206 5.54035 75.1227 6.32385 75.5168 7.027C76.9111 9.51813 80.3162 15.6556 81.1346 17.2828C82.1653 19.342 85.2672 33.7464 80.0939 37.8648C75.3046 41.6819 73.1726 46.3728 59.7342 47.0459C57.6932 47.1463 55.9351 48.5124 55.3692 50.4712C53.9749 55.3429 51.2367 63.8911 49.0239 64.6345C46.1341 65.5887 42.335 69.235 37.6366 70.5509C36.9495 70.7418 36.3332 71.1235 35.8077 71.6056C33.8172 73.4438 28.0781 77.6326 18.8329 75.3222C17.6305 75.0209 16.5797 74.2776 15.933 73.2329C15.9128 73.1927 15.8825 73.1525 15.8623 73.1124L15.8825 73.8959C13.7505 76.0153 11.1235 74.7296 9.6887 73.7251C9.09255 73.3032 8.38526 73.1124 7.64767 73.0722C6.7383 73.022 5.88956 72.3791 5.30352 71.7864C4.80842 71.2942 4.23249 70.8824 3.56562 70.6614C2.11063 70.1993 1.38314 68.7428 1.38314 68.7428C-1.72892 65.659 1.38314 60.5161 1.38314 60.5161C3.23219 55.5941 10.7597 49.7178 16.5898 44.9967C16.7211 44.8962 16.8323 44.7858 16.9535 44.6753L27.6639 34.0277C27.9973 33.6962 28.2802 33.3245 28.5025 32.9026L36.2927 18.3777C36.3938 18.1768 36.4948 17.9759 36.5656 17.765L39.7079 9.16656C40.2535 7.65982 41.5368 6.5348 43.1029 6.17318L69.0704 0.126154C72.0612 -0.566944 74.9206 1.68311 74.9206 4.73676Z" fill="#2FB7A0"/>
</svg>
