<svg width="89" height="243" viewBox="0 0 89 243" fill="none" xmlns="http://www.w3.org/2000/svg">
<path d="M87.3305 47.2676L86.6405 48.6376L87.6305 56.2376C89.0005 70.3876 90.6005 98.9276 85.5105 127.988L82.4405 171.008C82.4405 171.008 84.4905 191.498 81.4105 205.838C81.4105 205.838 82.1305 222.298 78.7805 235.468C77.7105 239.668 73.7805 242.488 69.4605 242.108L35.1805 239.038C30.9905 238.658 27.6505 235.368 27.2205 231.188L24.8905 208.678L20.7905 189.218L13.6105 172.828C7.2705 148.248 2.6305 107.178 0.430496 77.7876C-1.5995 50.6776 3.9905 20.8876 8.0005 2.04757C8.3605 0.337575 10.2805 -0.522425 11.8005 0.337575L86.4505 42.6276C88.1105 43.5676 88.5305 45.7776 87.3305 47.2676Z" fill="#2FB7A0"/>
</svg>
