<svg width="114" height="137" viewBox="0 0 114 137" fill="none" xmlns="http://www.w3.org/2000/svg">
<path d="M0 108.97C1.17 108.8 2.45 107.77 3.54 106.63C3.42 106.52 3.32 106.45 3.32 106.45C8.76 99.01 19.78 83.06 25.16 76.13L33.06 66.48C35.87 60.95 39.31 54.49 42.45 48.68C45.67 42.76 48.91 36.85 52.41 31.07C54.18 28.21 55.94 25.16 58.31 22.76C65.06 15.6 72.03 7.07 78.08 0L113.41 30.96C113.41 30.96 83.69 72.96 69.34 81.16C58.63 87.27 39.37 109.92 30.28 121.03L30.4 121.11C30.4 121.11 29.26 122.37 28.07 123.75C26.95 125.14 26.13 126.16 25.68 126.74C25.63 126.82 25.58 126.9 25.55 126.96C24.92 128.13 20.87 132.69 20.73 136.75L0 108.97Z" fill="#2FB7A0"/>
</svg>
