<svg width="82" height="92" viewBox="0 0 82 92" fill="none" xmlns="http://www.w3.org/2000/svg">
<path d="M80.9699 18.3661C81.8001 19.0732 81.964 20.2929 81.3593 21.2051C80.0679 23.1524 78.633 25.7147 78.551 28.1028C78.4076 32.1718 73.8159 42.3082 71.7148 46.6846C69.6137 51.0611 67.2974 54.72 66.662 56.8109C66.0265 58.9017 64.6634 65.1025 64.3456 67.0498C64.0177 68.9972 62.675 74.2346 62.47 75.8027C62.265 77.3708 60.2972 89.3932 55.7055 89.1677C51.1139 88.9319 54.0759 76.6021 54.5679 74.3575C55.0701 72.113 55.5211 66.3837 55.685 65.6662C55.8285 65.0103 56.4845 58.9735 56.3922 57.7436L56.218 57.4771C55.7465 57.4053 54.2809 57.8358 54.0452 58.1535C53.7787 58.502 48.5721 69.3969 47.8649 71.0163C47.1577 72.6357 42.3098 80.3943 41.8178 81.3373C41.3259 82.2802 35.5761 94.3333 30.9229 91.5967C26.2595 88.8704 33.5057 79.6564 34.6639 77.6578C35.8221 75.6592 39.6758 67.3676 40.0447 66.4246C40.4137 65.4817 43.3962 58.4917 43.3245 58.051C43.263 57.6001 42.6993 57.7026 42.3303 57.9793C41.9613 58.2458 35.3608 69.2432 34.6536 70.1964C33.9464 71.1393 28.1454 80.2918 27.7559 80.8043C27.3664 81.3168 22.2521 93.5031 17.5169 89.9569C12.792 86.4106 19.4335 77.9448 20.6737 75.8334C21.9139 73.7221 26.2595 66.7424 27.4997 64.754C28.7296 62.7657 34.2949 54.4946 33.8337 53.7669C33.3725 53.0392 32.5115 52.1475 31.9171 51.7068C31.3226 51.266 30.1645 51.2865 29.8878 51.6658C29.6008 52.045 24.4249 56.1344 22.1393 58.297C19.8435 60.4596 15.0981 64.5388 14.3909 65.4817C13.6837 66.4246 5.6381 77.2273 1.54866 73.4454C-2.54078 69.6634 7.43171 59.9676 8.35414 58.7275C9.28682 57.4873 13.9707 51.512 15.8771 49.8107C17.7834 48.1195 24.1072 42.3185 25.3166 40.9861C26.526 39.6537 33.1778 30.6036 32.8498 28.2873C32.5218 25.971 32.3988 24.4951 31.9171 23.9621C31.4354 23.4292 29.775 22.271 27.7867 22.558C25.7983 22.845 18.3471 26.3194 17.6912 25.2843C16.4818 26.0632 7.22672 24.0646 2.12261 18.2533C-2.9815 12.442 2.1636 10.9866 6.60152 12.6675C11.0394 14.3484 15.1596 13.5387 17.1275 13.2517C19.0851 12.975 22.9798 12.032 25.8291 10.0744C28.6783 8.12708 29.6213 6.23098 37.1955 5.14456C43.591 4.23238 54.4244 1.20886 57.9091 0.101942C58.6163 -0.123541 59.3953 0.0301975 59.959 0.511911L80.9391 18.3661H80.9699Z" fill="#2FB7A0"/>
</svg>
