<svg width="231" height="344" viewBox="0 0 231 344" fill="none" xmlns="http://www.w3.org/2000/svg">
<path d="M205.897 106.799C199.337 125.879 185.987 146.539 182.977 149.549C182.977 149.549 173.237 171.569 171.187 173.619C171.187 173.619 141.467 215.619 127.117 223.819C116.407 229.939 97.1466 252.589 88.0566 263.689L88.1666 263.769C88.1666 263.769 87.0166 265.039 85.8366 266.409C84.7166 267.799 83.8966 268.829 83.4466 269.389C83.3966 269.469 83.3466 269.539 83.3166 269.619C82.6966 270.799 78.6466 275.349 78.4966 279.409C78.3566 283.479 73.7566 293.609 71.6566 297.979C69.5566 302.359 67.2366 306.009 66.6066 308.099C65.9666 310.189 64.6066 316.389 64.2866 318.329C63.9566 320.279 62.6166 325.509 62.4066 327.079C62.1966 328.649 60.2366 340.659 55.6466 340.439C51.0566 340.199 54.0166 327.879 54.5066 325.639C55.0066 323.399 55.4566 317.669 55.6266 316.949C55.7666 316.289 56.4266 310.259 56.3366 309.029L56.1666 308.759C55.6966 308.689 54.2266 309.119 53.9966 309.439C53.7266 309.789 48.5266 320.679 47.8166 322.299C47.1066 323.919 42.2566 331.669 41.7666 332.619C41.2766 333.559 35.5266 345.609 30.8766 342.869C26.2166 340.149 33.4566 330.939 34.6166 328.939C35.7766 326.939 39.6266 318.649 39.9966 317.709C40.3666 316.769 43.3466 309.779 43.2766 309.339C43.2166 308.889 42.6566 308.989 42.2866 309.269C41.9166 309.539 35.3166 320.529 34.6066 321.479C33.8966 322.419 28.0966 331.569 27.7066 332.079C27.3166 332.589 22.2066 344.769 17.4666 341.229C12.7366 337.689 19.3866 329.219 20.6266 327.109C21.8666 324.999 26.2166 318.019 27.4566 316.039C28.6866 314.049 34.2566 305.789 33.7866 305.059C33.3266 304.329 32.4666 303.439 31.8666 302.999C31.2766 302.559 30.1166 302.579 29.8366 302.959C29.5466 303.339 24.3766 307.429 22.0866 309.589C19.7866 311.749 15.0466 315.829 14.3366 316.769C13.6266 317.709 5.58657 328.509 1.49657 324.729C-2.59343 320.949 7.37657 311.259 8.29657 310.019C9.22657 308.779 13.9166 302.809 15.8166 301.109H15.8766C17.7866 299.409 24.1066 293.609 25.3166 292.279C26.5266 290.949 33.1766 281.899 32.8466 279.589C32.5166 277.269 32.3966 275.799 31.9166 275.269C31.4366 274.739 29.7766 273.579 27.7866 273.869C25.7966 274.159 18.3466 277.629 17.6866 276.599C16.4766 277.379 7.22656 275.379 2.11656 269.569C-2.97344 263.769 2.15657 262.309 6.59657 263.989C11.0366 265.669 15.1566 264.859 17.1266 264.569C19.0866 264.289 22.9766 263.349 25.8266 261.389C28.6766 259.439 29.6166 257.549 37.1966 256.459C44.7866 255.369 54.9366 252.039 57.8166 251.619C58.9966 251.449 60.2766 250.419 61.3666 249.269L61.1366 249.099L75.6166 228.839C77.9766 225.639 80.3966 221.899 82.9666 218.789L90.8666 209.139C93.6766 203.639 97.1266 197.149 100.257 191.349C103.477 185.429 106.727 179.519 110.217 173.739C111.987 170.879 113.757 167.829 116.117 165.429C122.857 158.269 129.827 149.729 135.877 142.669C139.677 133.779 144.727 120.619 148.327 111.509C148.287 111.819 160.727 79.1392 160.437 80.4692C159.517 74.0892 160.057 67.6592 160.677 61.2892C161.347 54.9292 162.327 48.6192 163.527 42.3392C165.187 37.6992 167.177 33.1692 169.657 28.9092C182.167 7.70917 200.367 2.10917 223.577 0.0791703C223.607 0.0791703 223.637 0.0791703 223.677 0.0691703C228.077 -0.57083 231.777 3.32917 230.807 7.67917C225.757 30.3092 213.077 85.8992 205.897 106.799ZM84.3766 268.199C84.0666 268.579 83.8166 268.919 83.6266 269.189L84.3766 268.199Z" fill="#2FB7A0"/>
</svg>
