<svg width="92" height="478" viewBox="0 0 92 478" fill="none" xmlns="http://www.w3.org/2000/svg">
<path d="M91.9999 0H3.34813C0.58036 21.1405 -0.518459 42.1376 0.227907 52.068C0.694386 58.1491 1.20233 64.4145 1.9798 70.5979C1.9798 70.5979 6.07444 117.885 10.3349 135.023C14.6058 152.16 20.8255 162.398 20.8255 162.398L27.0453 197.205L28.03 217.629C28.0611 218.346 28.0611 219.062 28.03 219.789L27.0453 239.189L24.972 272.973L37.4115 333.375L43.6312 366.135L44.5434 375.84L45.1654 390.613L46.741 409.132L42.5946 420.394C29.1185 449.059 12.5326 451.106 7.49461 462.603C7.49461 462.603 4.38475 467.722 7.49461 470.793C7.49461 470.793 8.53123 472.84 10.6045 472.84C10.6045 472.84 12.6777 475.912 14.751 474.888C14.751 474.888 18.8974 478.983 22.0073 475.912L21.9866 475.134C22.6396 476.229 23.3445 476.874 23.3445 476.874C36.0846 480.907 42.7397 472.84 42.7397 472.84C47.9228 471.817 52.0693 467.722 55.1791 466.698C58.289 465.674 62.4355 449.294 62.4355 449.294C79.0214 449.294 81.0946 444.175 86.2777 440.08C91.4608 435.985 88.351 421.653 87.3143 419.605C86.2777 417.558 81.0946 408.344 81.0946 408.344V401.178C81.0946 399.13 76.9481 385.821 75.9115 378.655C74.8749 371.489 82.1312 306.992 82.1312 306.992C82.1312 306.992 87.3143 281.399 86.2777 271.161C85.2411 260.924 76.9481 216.902 76.9481 216.902C83.1679 203.594 82.1312 180.047 82.1312 180.047C85.2411 165.715 83.1679 145.24 83.1679 145.24L86.2777 102.242C91.409 73.188 89.7815 44.6663 88.4028 30.5283L87.9259 29.9755L87.3558 21.6728L89.626 18.7551L90.4138 17.6495L91.1706 17.7109L91.9999 18.7244V0Z" fill="#2FB7A0"/>
</svg>
