<svg width="150" height="56" viewBox="0 0 150 56" fill="none" xmlns="http://www.w3.org/2000/svg">
<path d="M149.64 55.67H0C2.21 55.39 4.46 55.15 6.77 54.94C6.86 54.94 6.96 54.92 7.05 54.91C10.2 54.45 13.31 53.77 16.31 52.73C22.5 50.64 27.71 46.58 33.65 43.88C36.55 42.56 39.58 40.94 41.78 38.63C42.04 38.36 42.28 38.07 42.52 37.78C43.11 37.04 43.62 36.23 44.01 35.34C44.14 35.04 44.23 34.73 44.29 34.42C44.56 33.07 44.82 31.59 44.98 30.17C46.27 21.07 45.15 11.96 44.8 2.83C44.76 1.8 44.39 0.82 43.73 0.03C43.71 0.01 43.71 0 43.71 0H105.96C105.29 0.79 104.91 1.79 104.87 2.83C104.52 11.96 103.4 21.07 104.69 30.17C104.84 31.58 105.11 33.05 105.38 34.41C105.45 34.73 105.54 35.05 105.67 35.35C107.54 39.55 111.93 42.02 116.03 43.88C121.97 46.58 127.19 50.64 133.37 52.73C136.37 53.77 139.48 54.45 142.63 54.91C142.72 54.92 142.81 54.93 142.91 54.94C145.2 55.15 147.45 55.38 149.63 55.67H149.64Z" fill="#2D5893"/>
</svg>
